<svg width="1440" height="957" viewBox="0 0 1440 957" fill="none" xmlns="http://www.w3.org/2000/svg">
<g clip-path="url(#clip0_301_3035)">
<rect width="1440" height="1058.91" rx="16" fill="#121214"/>
<g opacity="0.2" filter="url(#filter0_f_301_3035)">
<ellipse cx="720.703" cy="47.8125" rx="942.891" ry="492.188" fill="#338AF3"/>
</g>
<path d="M46.4553 379.688C48.5581 379.688 50.15 380.574 51.2308 382.347C52.3314 384.1 52.8816 386.653 52.8816 390.004C52.8816 393.355 52.3314 395.917 51.2308 397.69C50.15 399.463 48.5581 400.35 46.4553 400.35C44.3722 400.35 42.7804 399.463 41.6798 397.69C40.5793 395.917 40.029 393.355 40.029 390.004C40.029 386.672 40.5793 384.12 41.6798 382.347C42.7804 380.574 44.3722 379.688 46.4553 379.688ZM42.122 390.004C42.122 392.381 42.3382 394.242 42.7705 395.586L49.3147 382.639C48.6269 381.724 47.6738 381.266 46.4553 381.266C45.0993 381.266 44.0381 381.987 43.2717 383.428C42.5052 384.851 42.122 387.042 42.122 390.004ZM46.4553 398.742C47.831 398.742 48.902 398.031 49.6685 396.609C50.4349 395.167 50.8181 392.965 50.8181 390.004C50.8181 387.491 50.5725 385.542 50.0812 384.159L43.537 397.222C44.2445 398.236 45.2172 398.742 46.4553 398.742Z" fill="url(#paint0_linear_301_3035)" fill-opacity="0.6"/>
<path d="M48.224 431.908H52.5574V433.457H41.3261V431.908H46.3374V415.484L41.5619 418.319L40.7365 417.004L46.6322 413.38H48.224V431.908Z" fill="url(#paint1_linear_301_3035)" fill-opacity="0.6"/>
<path d="M46.4553 446.487C48.5581 446.487 50.15 447.374 51.2308 449.147C52.3314 450.9 52.8816 453.453 52.8816 456.804C52.8816 460.155 52.3314 462.717 51.2308 464.49C50.15 466.263 48.5581 467.149 46.4553 467.149C44.3722 467.149 42.7804 466.263 41.6798 464.49C40.5793 462.717 40.029 460.155 40.029 456.804C40.029 453.472 40.5793 450.92 41.6798 449.147C42.7804 447.374 44.3722 446.487 46.4553 446.487ZM42.122 456.804C42.122 459.181 42.3382 461.041 42.7705 462.386L49.3147 449.439C48.6269 448.523 47.6738 448.065 46.4553 448.065C45.0993 448.065 44.0381 448.786 43.2717 450.228C42.5052 451.65 42.122 453.842 42.122 456.804ZM46.4553 465.542C47.831 465.542 48.902 464.831 49.6685 463.409C50.4349 461.967 50.8181 459.765 50.8181 456.804C50.8181 454.29 50.5725 452.342 50.0812 450.959L43.537 464.022C44.2445 465.035 45.2172 465.542 46.4553 465.542Z" fill="url(#paint2_linear_301_3035)" fill-opacity="0.6"/>
<path d="M48.224 498.708H52.5574V500.257H41.3261V498.708H46.3374V482.284L41.5619 485.119L40.7365 483.803L46.6322 480.18H48.224V498.708Z" fill="url(#paint3_linear_301_3035)" fill-opacity="0.6"/>
<path d="M48.224 532.108H52.5574V533.657H41.3261V532.108H46.3374V515.684L41.5619 518.518L40.7365 517.203L46.6322 513.579H48.224V532.108Z" fill="url(#paint4_linear_301_3035)" fill-opacity="0.6"/>
<path d="M46.4553 546.687C48.5581 546.687 50.15 547.574 51.2308 549.347C52.3314 551.1 52.8816 553.652 52.8816 557.004C52.8816 560.355 52.3314 562.917 51.2308 564.69C50.15 566.463 48.5581 567.349 46.4553 567.349C44.3722 567.349 42.7804 566.463 41.6798 564.69C40.5793 562.917 40.029 560.355 40.029 557.004C40.029 553.672 40.5793 551.12 41.6798 549.347C42.7804 547.574 44.3722 546.687 46.4553 546.687ZM42.122 557.004C42.122 559.381 42.3382 561.241 42.7705 562.585L49.3147 549.639C48.6269 548.723 47.6738 548.265 46.4553 548.265C45.0993 548.265 44.0381 548.986 43.2717 550.428C42.5052 551.85 42.122 554.042 42.122 557.004ZM46.4553 565.742C47.831 565.742 48.902 565.031 49.6685 563.608C50.4349 562.167 50.8181 559.965 50.8181 557.004C50.8181 554.49 50.5725 552.542 50.0812 551.159L43.537 564.222C44.2445 565.235 45.2172 565.742 46.4553 565.742Z" fill="url(#paint5_linear_301_3035)" fill-opacity="0.6"/>
<path d="M48.224 598.908H52.5574V600.457H41.3261V598.908H46.3374V582.484L41.5619 585.318L40.7365 584.003L46.6322 580.379H48.224V598.908Z" fill="url(#paint6_linear_301_3035)" fill-opacity="0.6"/>
<path d="M46.4553 613.487C48.5581 613.487 50.15 614.373 51.2308 616.146C52.3314 617.9 52.8816 620.452 52.8816 623.803C52.8816 627.155 52.3314 629.717 51.2308 631.49C50.15 633.263 48.5581 634.149 46.4553 634.149C44.3722 634.149 42.7804 633.263 41.6798 631.49C40.5793 629.717 40.029 627.155 40.029 623.803C40.029 620.472 40.5793 617.919 41.6798 616.146C42.7804 614.373 44.3722 613.487 46.4553 613.487ZM42.122 623.803C42.122 626.18 42.3382 628.041 42.7705 629.385L49.3147 616.439C48.6269 615.523 47.6738 615.065 46.4553 615.065C45.0993 615.065 44.0381 615.786 43.2717 617.228C42.5052 618.65 42.122 620.842 42.122 623.803ZM46.4553 632.542C47.831 632.542 48.902 631.831 49.6685 630.408C50.4349 628.966 50.8181 626.765 50.8181 623.803C50.8181 621.29 50.5725 619.342 50.0812 617.958L43.537 631.022C44.2445 632.035 45.2172 632.542 46.4553 632.542Z" fill="url(#paint7_linear_301_3035)" fill-opacity="0.6"/>
<path d="M46.4553 646.887C48.5581 646.887 50.15 647.773 51.2308 649.546C52.3314 651.3 52.8816 653.852 52.8816 657.203C52.8816 660.554 52.3314 663.116 51.2308 664.889C50.15 666.662 48.5581 667.549 46.4553 667.549C44.3722 667.549 42.7804 666.662 41.6798 664.889C40.5793 663.116 40.029 660.554 40.029 657.203C40.029 653.872 40.5793 651.319 41.6798 649.546C42.7804 647.773 44.3722 646.887 46.4553 646.887ZM42.122 657.203C42.122 659.58 42.3382 661.441 42.7705 662.785L49.3147 649.839C48.6269 648.923 47.6738 648.465 46.4553 648.465C45.0993 648.465 44.0381 649.186 43.2717 650.628C42.5052 652.05 42.122 654.242 42.122 657.203ZM46.4553 665.942C47.831 665.942 48.902 665.23 49.6685 663.808C50.4349 662.366 50.8181 660.165 50.8181 657.203C50.8181 654.69 50.5725 652.742 50.0812 651.358L43.537 664.422C44.2445 665.435 45.2172 665.942 46.4553 665.942Z" fill="url(#paint8_linear_301_3035)" fill-opacity="0.6"/>
<path d="M48.224 699.108H52.5574V700.657H41.3261V699.108H46.3374V682.683L41.5619 685.518L40.7365 684.203L46.6322 680.579H48.224V699.108Z" fill="url(#paint9_linear_301_3035)" fill-opacity="0.6"/>
<path d="M46.4553 713.687C48.5581 713.687 50.15 714.573 51.2308 716.346C52.3314 718.1 52.8816 720.652 52.8816 724.003C52.8816 727.354 52.3314 729.916 51.2308 731.689C50.15 733.462 48.5581 734.349 46.4553 734.349C44.3722 734.349 42.7804 733.462 41.6798 731.689C40.5793 729.916 40.029 727.354 40.029 724.003C40.029 720.672 40.5793 718.119 41.6798 716.346C42.7804 714.573 44.3722 713.687 46.4553 713.687ZM42.122 724.003C42.122 726.38 42.3382 728.241 42.7705 729.585L49.3147 716.638C48.6269 715.723 47.6738 715.265 46.4553 715.265C45.0993 715.265 44.0381 715.986 43.2717 717.428C42.5052 718.85 42.122 721.042 42.122 724.003ZM46.4553 732.741C47.831 732.741 48.902 732.03 49.6685 730.608C50.4349 729.166 50.8181 726.965 50.8181 724.003C50.8181 721.49 50.5725 719.541 50.0812 718.158L43.537 731.222C44.2445 732.235 45.2172 732.741 46.4553 732.741Z" fill="url(#paint10_linear_301_3035)" fill-opacity="0.6"/>
<path d="M48.224 765.908H52.5574V767.456H41.3261V765.908H46.3374V749.483L41.5619 752.318L40.7365 751.003L46.6322 747.379H48.224V765.908Z" fill="url(#paint11_linear_301_3035)" fill-opacity="0.6"/>
<path d="M48.224 799.308H52.5574V800.856H41.3261V799.308H46.3374V782.883L41.5619 785.718L40.7365 784.403L46.6322 780.779H48.224V799.308Z" fill="url(#paint12_linear_301_3035)" fill-opacity="0.6"/>
<path d="M101.201 446.487C103.304 446.487 104.896 447.374 105.976 449.147C107.077 450.9 107.627 453.453 107.627 456.804C107.627 460.155 107.077 462.717 105.976 464.49C104.896 466.263 103.304 467.149 101.201 467.149C99.1178 467.149 97.5259 466.263 96.4254 464.49C95.3249 462.717 94.7746 460.155 94.7746 456.804C94.7746 453.472 95.3249 450.92 96.4254 449.147C97.5259 447.374 99.1178 446.487 101.201 446.487ZM96.8676 456.804C96.8676 459.181 97.0838 461.041 97.5161 462.386L104.06 449.439C103.372 448.523 102.419 448.065 101.201 448.065C99.8449 448.065 98.7837 448.786 98.0172 450.228C97.2508 451.65 96.8676 453.842 96.8676 456.804ZM101.201 465.542C102.577 465.542 103.648 464.831 104.414 463.409C105.18 461.967 105.564 459.765 105.564 456.804C105.564 454.29 105.318 452.342 104.827 450.959L98.2826 464.022C98.99 465.035 99.9628 465.542 101.201 465.542Z" fill="url(#paint13_linear_301_3035)" fill-opacity="0.6"/>
<path d="M102.97 498.708H107.303V500.257H96.0717V498.708H101.083V482.284L96.3075 485.119L95.4821 483.803L101.378 480.18H102.97V498.708Z" fill="url(#paint14_linear_301_3035)" fill-opacity="0.6"/>
<path d="M101.201 513.287C103.304 513.287 104.896 514.174 105.976 515.947C107.077 517.7 107.627 520.252 107.627 523.604C107.627 526.955 107.077 529.517 105.976 531.29C104.896 533.063 103.304 533.949 101.201 533.949C99.1178 533.949 97.5259 533.063 96.4254 531.29C95.3249 529.517 94.7746 526.955 94.7746 523.604C94.7746 520.272 95.3249 517.72 96.4254 515.947C97.5259 514.174 99.1178 513.287 101.201 513.287ZM96.8676 523.604C96.8676 525.981 97.0838 527.841 97.5161 529.186L104.06 516.239C103.372 515.323 102.419 514.865 101.201 514.865C99.8449 514.865 98.7837 515.586 98.0172 517.028C97.2508 518.45 96.8676 520.642 96.8676 523.604ZM101.201 532.342C102.577 532.342 103.648 531.631 104.414 530.208C105.18 528.767 105.564 526.565 105.564 523.604C105.564 521.09 105.318 519.142 104.827 517.759L98.2826 530.822C98.99 531.835 99.9628 532.342 101.201 532.342Z" fill="url(#paint15_linear_301_3035)" fill-opacity="0.6"/>
<path d="M101.201 546.687C103.304 546.687 104.896 547.574 105.976 549.347C107.077 551.1 107.627 553.652 107.627 557.004C107.627 560.355 107.077 562.917 105.976 564.69C104.896 566.463 103.304 567.349 101.201 567.349C99.1178 567.349 97.5259 566.463 96.4254 564.69C95.3249 562.917 94.7746 560.355 94.7746 557.004C94.7746 553.672 95.3249 551.12 96.4254 549.347C97.5259 547.574 99.1178 546.687 101.201 546.687ZM96.8676 557.004C96.8676 559.381 97.0838 561.241 97.5161 562.585L104.06 549.639C103.372 548.723 102.419 548.265 101.201 548.265C99.8449 548.265 98.7837 548.986 98.0172 550.428C97.2508 551.85 96.8676 554.042 96.8676 557.004ZM101.201 565.742C102.577 565.742 103.648 565.031 104.414 563.608C105.18 562.167 105.564 559.965 105.564 557.004C105.564 554.49 105.318 552.542 104.827 551.159L98.2826 564.222C98.99 565.235 99.9628 565.742 101.201 565.742Z" fill="url(#paint16_linear_301_3035)" fill-opacity="0.6"/>
<path d="M102.97 598.908H107.303V600.457H96.0717V598.908H101.083V582.484L96.3075 585.318L95.4821 584.003L101.378 580.379H102.97V598.908Z" fill="url(#paint17_linear_301_3035)" fill-opacity="0.6"/>
<path d="M101.201 613.487C103.304 613.487 104.896 614.373 105.976 616.146C107.077 617.9 107.627 620.452 107.627 623.803C107.627 627.155 107.077 629.717 105.976 631.49C104.896 633.263 103.304 634.149 101.201 634.149C99.1178 634.149 97.5259 633.263 96.4254 631.49C95.3249 629.717 94.7746 627.155 94.7746 623.803C94.7746 620.472 95.3249 617.919 96.4254 616.146C97.5259 614.373 99.1178 613.487 101.201 613.487ZM96.8676 623.803C96.8676 626.18 97.0838 628.041 97.5161 629.385L104.06 616.439C103.372 615.523 102.419 615.065 101.201 615.065C99.8449 615.065 98.7837 615.786 98.0172 617.228C97.2508 618.65 96.8676 620.842 96.8676 623.803ZM101.201 632.542C102.577 632.542 103.648 631.831 104.414 630.408C105.18 628.966 105.564 626.765 105.564 623.803C105.564 621.29 105.318 619.342 104.827 617.958L98.2826 631.022C98.99 632.035 99.9628 632.542 101.201 632.542Z" fill="url(#paint18_linear_301_3035)" fill-opacity="0.6"/>
<path d="M102.97 665.708H107.303V667.257H96.0717V665.708H101.083V649.283L96.3075 652.118L95.4821 650.803L101.378 647.179H102.97V665.708Z" fill="url(#paint19_linear_301_3035)" fill-opacity="0.6"/>
<path d="M101.201 680.287C103.304 680.287 104.896 681.173 105.976 682.946C107.077 684.7 107.627 687.252 107.627 690.603C107.627 693.954 107.077 696.516 105.976 698.289C104.896 700.062 103.304 700.949 101.201 700.949C99.1178 700.949 97.5259 700.062 96.4254 698.289C95.3249 696.516 94.7746 693.954 94.7746 690.603C94.7746 687.272 95.3249 684.719 96.4254 682.946C97.5259 681.173 99.1178 680.287 101.201 680.287ZM96.8676 690.603C96.8676 692.98 97.0838 694.841 97.5161 696.185L104.06 683.239C103.372 682.323 102.419 681.865 101.201 681.865C99.8449 681.865 98.7837 682.586 98.0172 684.028C97.2508 685.45 96.8676 687.642 96.8676 690.603ZM101.201 699.342C102.577 699.342 103.648 698.63 104.414 697.208C105.18 695.766 105.564 693.565 105.564 690.603C105.564 688.09 105.318 686.142 104.827 684.758L98.2826 697.822C98.99 698.835 99.9628 699.342 101.201 699.342Z" fill="url(#paint20_linear_301_3035)" fill-opacity="0.6"/>
<path d="M101.201 713.687C103.304 713.687 104.896 714.573 105.976 716.346C107.077 718.1 107.627 720.652 107.627 724.003C107.627 727.354 107.077 729.916 105.976 731.689C104.896 733.462 103.304 734.349 101.201 734.349C99.1178 734.349 97.5259 733.462 96.4254 731.689C95.3249 729.916 94.7746 727.354 94.7746 724.003C94.7746 720.672 95.3249 718.119 96.4254 716.346C97.5259 714.573 99.1178 713.687 101.201 713.687ZM96.8676 724.003C96.8676 726.38 97.0838 728.241 97.5161 729.585L104.06 716.638C103.372 715.723 102.419 715.265 101.201 715.265C99.8449 715.265 98.7837 715.986 98.0172 717.428C97.2508 718.85 96.8676 721.042 96.8676 724.003ZM101.201 732.741C102.577 732.741 103.648 732.03 104.414 730.608C105.18 729.166 105.564 726.965 105.564 724.003C105.564 721.49 105.318 719.541 104.827 718.158L98.2826 731.222C98.99 732.235 99.9628 732.741 101.201 732.741Z" fill="url(#paint21_linear_301_3035)" fill-opacity="0.6"/>
<path d="M102.97 765.908H107.303V767.456H96.0717V765.908H101.083V749.483L96.3075 752.318L95.4821 751.003L101.378 747.379H102.97V765.908Z" fill="url(#paint22_linear_301_3035)" fill-opacity="0.6"/>
<path d="M101.201 780.487C103.304 780.487 104.896 781.373 105.976 783.146C107.077 784.9 107.627 787.452 107.627 790.803C107.627 794.154 107.077 796.716 105.976 798.489C104.896 800.262 103.304 801.149 101.201 801.149C99.1178 801.149 97.5259 800.262 96.4254 798.489C95.3249 796.716 94.7746 794.154 94.7746 790.803C94.7746 787.471 95.3249 784.919 96.4254 783.146C97.5259 781.373 99.1178 780.487 101.201 780.487ZM96.8676 790.803C96.8676 793.18 97.0838 795.041 97.5161 796.385L104.06 783.438C103.372 782.523 102.419 782.065 101.201 782.065C99.8449 782.065 98.7837 782.786 98.0172 784.227C97.2508 785.65 96.8676 787.842 96.8676 790.803ZM101.201 799.541C102.577 799.541 103.648 798.83 104.414 797.408C105.18 795.966 105.564 793.764 105.564 790.803C105.564 788.29 105.318 786.341 104.827 784.958L98.2826 798.022C98.99 799.035 99.9628 799.541 101.201 799.541Z" fill="url(#paint23_linear_301_3035)" fill-opacity="0.6"/>
<path d="M102.97 832.707H107.303V834.256H96.0717V832.707H101.083V816.283L96.3075 819.118L95.4821 817.803L101.378 814.179H102.97V832.707Z" fill="url(#paint24_linear_301_3035)" fill-opacity="0.6"/>
<path d="M102.97 866.107H107.303V867.656H96.0717V866.107H101.083V849.683L96.3075 852.518L95.4821 851.203L101.378 847.579H102.97V866.107Z" fill="url(#paint25_linear_301_3035)" fill-opacity="0.6"/>
<path d="M19.0825 479.887C21.1853 479.887 22.7772 480.774 23.858 482.547C24.9586 484.3 25.5088 486.853 25.5088 490.204C25.5088 493.555 24.9586 496.117 23.858 497.89C22.7772 499.663 21.1853 500.549 19.0825 500.549C16.9994 500.549 15.4076 499.663 14.307 497.89C13.2065 496.117 12.6562 493.555 12.6562 490.204C12.6562 486.872 13.2065 484.32 14.307 482.547C15.4076 480.774 16.9994 479.887 19.0825 479.887ZM14.7492 490.204C14.7492 492.581 14.9654 494.441 15.3977 495.786L21.9419 482.839C21.2541 481.923 20.301 481.465 19.0825 481.465C17.7265 481.465 16.6653 482.186 15.8989 483.628C15.1324 485.05 14.7492 487.242 14.7492 490.204ZM19.0825 498.942C20.4582 498.942 21.5292 498.231 22.2957 496.809C23.0621 495.367 23.4453 493.165 23.4453 490.204C23.4453 487.69 23.1997 485.742 22.7084 484.359L16.1642 497.422C16.8717 498.435 17.8444 498.942 19.0825 498.942Z" fill="url(#paint26_linear_301_3035)" fill-opacity="0.6"/>
<path d="M19.0825 513.287C21.1853 513.287 22.7772 514.174 23.858 515.947C24.9586 517.7 25.5088 520.252 25.5088 523.604C25.5088 526.955 24.9586 529.517 23.858 531.29C22.7772 533.063 21.1853 533.949 19.0825 533.949C16.9994 533.949 15.4076 533.063 14.307 531.29C13.2065 529.517 12.6562 526.955 12.6562 523.604C12.6562 520.272 13.2065 517.72 14.307 515.947C15.4076 514.174 16.9994 513.287 19.0825 513.287ZM14.7492 523.604C14.7492 525.981 14.9654 527.841 15.3977 529.186L21.9419 516.239C21.2541 515.323 20.301 514.865 19.0825 514.865C17.7265 514.865 16.6653 515.586 15.8989 517.028C15.1324 518.45 14.7492 520.642 14.7492 523.604ZM19.0825 532.342C20.4582 532.342 21.5292 531.631 22.2957 530.208C23.0621 528.767 23.4453 526.565 23.4453 523.604C23.4453 521.09 23.1997 519.142 22.7084 517.759L16.1642 530.822C16.8717 531.835 17.8444 532.342 19.0825 532.342Z" fill="url(#paint27_linear_301_3035)" fill-opacity="0.6"/>
<path d="M20.8512 565.508H25.1846V567.057H13.9533V565.508H18.9646V549.084L14.1891 551.918L13.3637 550.603L19.2594 546.979H20.8512V565.508Z" fill="url(#paint28_linear_301_3035)" fill-opacity="0.6"/>
<path d="M19.0825 580.087C21.1853 580.087 22.7772 580.974 23.858 582.747C24.9586 584.5 25.5088 587.052 25.5088 590.403C25.5088 593.755 24.9586 596.317 23.858 598.09C22.7772 599.863 21.1853 600.749 19.0825 600.749C16.9994 600.749 15.4076 599.863 14.307 598.09C13.2065 596.317 12.6562 593.755 12.6562 590.403C12.6562 587.072 13.2065 584.52 14.307 582.747C15.4076 580.974 16.9994 580.087 19.0825 580.087ZM14.7492 590.403C14.7492 592.78 14.9654 594.641 15.3977 595.985L21.9419 583.039C21.2541 582.123 20.301 581.665 19.0825 581.665C17.7265 581.665 16.6653 582.386 15.8989 583.828C15.1324 585.25 14.7492 587.442 14.7492 590.403ZM19.0825 599.142C20.4582 599.142 21.5292 598.431 22.2957 597.008C23.0621 595.567 23.4453 593.365 23.4453 590.403C23.4453 587.89 23.1997 585.942 22.7084 584.558L16.1642 597.622C16.8717 598.635 17.8444 599.142 19.0825 599.142Z" fill="url(#paint29_linear_301_3035)" fill-opacity="0.6"/>
<path d="M20.8512 632.308H25.1846V633.857H13.9533V632.308H18.9646V615.883L14.1891 618.718L13.3637 617.403L19.2594 613.779H20.8512V632.308Z" fill="url(#paint30_linear_301_3035)" fill-opacity="0.6"/>
<path d="M20.8512 665.708H25.1846V667.257H13.9533V665.708H18.9646V649.283L14.1891 652.118L13.3637 650.803L19.2594 647.179H20.8512V665.708Z" fill="url(#paint31_linear_301_3035)" fill-opacity="0.6"/>
<path d="M75.5968 431.908H79.9302V433.457H68.6989V431.908H73.7102V415.484L68.9347 418.319L68.1093 417.004L74.005 413.38H75.5968V431.908Z" fill="url(#paint32_linear_301_3035)" fill-opacity="0.6"/>
<path d="M73.8281 446.487C75.9309 446.487 77.5227 447.374 78.6036 449.147C79.7041 450.9 80.2544 453.453 80.2544 456.804C80.2544 460.155 79.7041 462.717 78.6036 464.49C77.5227 466.263 75.9309 467.149 73.8281 467.149C71.745 467.149 70.1531 466.263 69.0526 464.49C67.9521 462.717 67.4018 460.155 67.4018 456.804C67.4018 453.472 67.9521 450.92 69.0526 449.147C70.1531 447.374 71.745 446.487 73.8281 446.487ZM69.4948 456.804C69.4948 459.181 69.711 461.041 70.1433 462.386L76.6875 449.439C75.9997 448.523 75.0466 448.065 73.8281 448.065C72.4721 448.065 71.4109 448.786 70.6445 450.228C69.878 451.65 69.4948 453.842 69.4948 456.804ZM73.8281 465.542C75.2038 465.542 76.2748 464.831 77.0413 463.409C77.8077 461.967 78.1909 459.765 78.1909 456.804C78.1909 454.29 77.9453 452.342 77.454 450.959L70.9098 464.022C71.6172 465.035 72.59 465.542 73.8281 465.542Z" fill="url(#paint33_linear_301_3035)" fill-opacity="0.6"/>
<path d="M75.5968 498.708H79.9302V500.257H68.6989V498.708H73.7102V482.284L68.9347 485.119L68.1093 483.803L74.005 480.18H75.5968V498.708Z" fill="url(#paint34_linear_301_3035)" fill-opacity="0.6"/>
<path d="M75.5968 532.108H79.9302V533.657H68.6989V532.108H73.7102V515.684L68.9347 518.518L68.1093 517.203L74.005 513.579H75.5968V532.108Z" fill="url(#paint35_linear_301_3035)" fill-opacity="0.6"/>
<path d="M73.8281 546.687C75.9309 546.687 77.5227 547.574 78.6036 549.347C79.7041 551.1 80.2544 553.652 80.2544 557.004C80.2544 560.355 79.7041 562.917 78.6036 564.69C77.5227 566.463 75.9309 567.349 73.8281 567.349C71.745 567.349 70.1531 566.463 69.0526 564.69C67.9521 562.917 67.4018 560.355 67.4018 557.004C67.4018 553.672 67.9521 551.12 69.0526 549.347C70.1531 547.574 71.745 546.687 73.8281 546.687ZM69.4948 557.004C69.4948 559.381 69.711 561.241 70.1433 562.585L76.6875 549.639C75.9997 548.723 75.0466 548.265 73.8281 548.265C72.4721 548.265 71.4109 548.986 70.6445 550.428C69.878 551.85 69.4948 554.042 69.4948 557.004ZM73.8281 565.742C75.2038 565.742 76.2748 565.031 77.0413 563.608C77.8077 562.167 78.1909 559.965 78.1909 557.004C78.1909 554.49 77.9453 552.542 77.454 551.159L70.9098 564.222C71.6172 565.235 72.59 565.742 73.8281 565.742Z" fill="url(#paint36_linear_301_3035)" fill-opacity="0.6"/>
<path d="M75.5968 598.908H79.9302V600.457H68.6989V598.908H73.7102V582.484L68.9347 585.318L68.1093 584.003L74.005 580.379H75.5968V598.908Z" fill="url(#paint37_linear_301_3035)" fill-opacity="0.6"/>
<path d="M75.5968 632.308H79.9302V633.857H68.6989V632.308H73.7102V615.883L68.9347 618.718L68.1093 617.403L74.005 613.779H75.5968V632.308Z" fill="url(#paint38_linear_301_3035)" fill-opacity="0.6"/>
<path d="M73.8281 646.887C75.9309 646.887 77.5227 647.773 78.6036 649.546C79.7041 651.3 80.2544 653.852 80.2544 657.203C80.2544 660.554 79.7041 663.116 78.6036 664.889C77.5227 666.662 75.9309 667.549 73.8281 667.549C71.745 667.549 70.1531 666.662 69.0526 664.889C67.9521 663.116 67.4018 660.554 67.4018 657.203C67.4018 653.872 67.9521 651.319 69.0526 649.546C70.1531 647.773 71.745 646.887 73.8281 646.887ZM69.4948 657.203C69.4948 659.58 69.711 661.441 70.1433 662.785L76.6875 649.839C75.9997 648.923 75.0466 648.465 73.8281 648.465C72.4721 648.465 71.4109 649.186 70.6445 650.628C69.878 652.05 69.4948 654.242 69.4948 657.203ZM73.8281 665.942C75.2038 665.942 76.2748 665.23 77.0413 663.808C77.8077 662.366 78.1909 660.165 78.1909 657.203C78.1909 654.69 77.9453 652.742 77.454 651.358L70.9098 664.422C71.6172 665.435 72.59 665.942 73.8281 665.942Z" fill="url(#paint39_linear_301_3035)" fill-opacity="0.6"/>
<path d="M75.5968 699.108H79.9302V700.657H68.6989V699.108H73.7102V682.683L68.9347 685.518L68.1093 684.203L74.005 680.579H75.5968V699.108Z" fill="url(#paint40_linear_301_3035)" fill-opacity="0.6"/>
<path d="M73.8281 713.687C75.9309 713.687 77.5227 714.573 78.6036 716.346C79.7041 718.1 80.2544 720.652 80.2544 724.003C80.2544 727.354 79.7041 729.916 78.6036 731.689C77.5227 733.462 75.9309 734.349 73.8281 734.349C71.745 734.349 70.1531 733.462 69.0526 731.689C67.9521 729.916 67.4018 727.354 67.4018 724.003C67.4018 720.672 67.9521 718.119 69.0526 716.346C70.1531 714.573 71.745 713.687 73.8281 713.687ZM69.4948 724.003C69.4948 726.38 69.711 728.241 70.1433 729.585L76.6875 716.638C75.9997 715.723 75.0466 715.265 73.8281 715.265C72.4721 715.265 71.4109 715.986 70.6445 717.428C69.878 718.85 69.4948 721.042 69.4948 724.003ZM73.8281 732.741C75.2038 732.741 76.2748 732.03 77.0413 730.608C77.8077 729.166 78.1909 726.965 78.1909 724.003C78.1909 721.49 77.9453 719.541 77.454 718.158L70.9098 731.222C71.6172 732.235 72.59 732.741 73.8281 732.741Z" fill="url(#paint41_linear_301_3035)" fill-opacity="0.6"/>
<path d="M128.574 413.087C130.677 413.087 132.268 413.974 133.349 415.747C134.45 417.5 135 420.053 135 423.404C135 426.755 134.45 429.317 133.349 431.09C132.268 432.863 130.677 433.749 128.574 433.749C126.491 433.749 124.899 432.863 123.798 431.09C122.698 429.317 122.147 426.755 122.147 423.404C122.147 420.072 122.698 417.52 123.798 415.747C124.899 413.974 126.491 413.087 128.574 413.087ZM124.24 423.404C124.24 425.781 124.457 427.641 124.889 428.986L131.433 416.039C130.745 415.123 129.792 414.666 128.574 414.666C127.218 414.666 126.156 415.386 125.39 416.828C124.624 418.25 124.24 420.442 124.24 423.404ZM128.574 432.142C129.949 432.142 131.02 431.431 131.787 430.009C132.553 428.567 132.937 426.365 132.937 423.404C132.937 420.89 132.691 418.942 132.2 417.559L125.655 430.622C126.363 431.636 127.336 432.142 128.574 432.142Z" fill="url(#paint42_linear_301_3035)" fill-opacity="0.6"/>
<path d="M130.342 465.308H134.676V466.857H123.444V465.308H128.456V448.884L123.68 451.719L122.855 450.403L128.751 446.78H130.342V465.308Z" fill="url(#paint43_linear_301_3035)" fill-opacity="0.6"/>
<path d="M130.342 498.708H134.676V500.257H123.444V498.708H128.456V482.284L123.68 485.119L122.855 483.803L128.751 480.18H130.342V498.708Z" fill="url(#paint44_linear_301_3035)" fill-opacity="0.6"/>
<path d="M128.574 513.287C130.677 513.287 132.268 514.174 133.349 515.947C134.45 517.7 135 520.252 135 523.604C135 526.955 134.45 529.517 133.349 531.29C132.268 533.063 130.677 533.949 128.574 533.949C126.491 533.949 124.899 533.063 123.798 531.29C122.698 529.517 122.147 526.955 122.147 523.604C122.147 520.272 122.698 517.72 123.798 515.947C124.899 514.174 126.491 513.287 128.574 513.287ZM124.24 523.604C124.24 525.981 124.457 527.841 124.889 529.186L131.433 516.239C130.745 515.323 129.792 514.865 128.574 514.865C127.218 514.865 126.156 515.586 125.39 517.028C124.624 518.45 124.24 520.642 124.24 523.604ZM128.574 532.342C129.949 532.342 131.02 531.631 131.787 530.208C132.553 528.767 132.937 526.565 132.937 523.604C132.937 521.09 132.691 519.142 132.2 517.759L125.655 530.822C126.363 531.835 127.336 532.342 128.574 532.342Z" fill="url(#paint45_linear_301_3035)" fill-opacity="0.6"/>
<path d="M128.574 546.687C130.677 546.687 132.268 547.574 133.349 549.347C134.45 551.1 135 553.652 135 557.004C135 560.355 134.45 562.917 133.349 564.69C132.268 566.463 130.677 567.349 128.574 567.349C126.491 567.349 124.899 566.463 123.798 564.69C122.698 562.917 122.147 560.355 122.147 557.004C122.147 553.672 122.698 551.12 123.798 549.347C124.899 547.574 126.491 546.687 128.574 546.687ZM124.24 557.004C124.24 559.381 124.457 561.241 124.889 562.585L131.433 549.639C130.745 548.723 129.792 548.265 128.574 548.265C127.218 548.265 126.156 548.986 125.39 550.428C124.624 551.85 124.24 554.042 124.24 557.004ZM128.574 565.742C129.949 565.742 131.02 565.031 131.787 563.608C132.553 562.167 132.937 559.965 132.937 557.004C132.937 554.49 132.691 552.542 132.2 551.159L125.655 564.222C126.363 565.235 127.336 565.742 128.574 565.742Z" fill="url(#paint46_linear_301_3035)" fill-opacity="0.6"/>
<g opacity="0.6">
<path d="M1293.65 -42.1875C1295.66 -42.1875 1297.18 -41.3368 1298.21 -39.6353C1299.26 -37.9526 1299.78 -35.5032 1299.78 -32.2873C1299.78 -29.0714 1299.26 -26.6127 1298.21 -24.9113C1297.18 -23.2098 1295.66 -22.3591 1293.65 -22.3591C1291.66 -22.3591 1290.15 -23.2098 1289.1 -24.9113C1288.05 -26.6127 1287.52 -29.0714 1287.52 -32.2873C1287.52 -35.4845 1288.05 -37.9339 1289.1 -39.6353C1290.15 -41.3368 1291.66 -42.1875 1293.65 -42.1875ZM1289.52 -32.2873C1289.52 -30.0063 1289.72 -28.2207 1290.14 -26.9306L1296.38 -39.3549C1295.72 -40.2336 1294.81 -40.673 1293.65 -40.673C1292.36 -40.673 1291.35 -39.9812 1290.61 -38.5976C1289.88 -37.2327 1289.52 -35.1293 1289.52 -32.2873ZM1293.65 -23.9016C1294.96 -23.9016 1295.99 -24.5841 1296.72 -25.949C1297.45 -27.3326 1297.81 -29.4453 1297.81 -32.2873C1297.81 -34.6993 1297.58 -36.569 1297.11 -37.8965L1290.87 -25.36C1291.54 -24.3877 1292.47 -23.9016 1293.65 -23.9016Z" fill="url(#paint47_linear_301_3035)"/>
<path d="M1295.34 7.9264H1299.47V9.41282H1288.76V7.9264H1293.54V-7.83536L1288.98 -5.11492L1288.2 -6.37698L1293.82 -9.85466H1295.34V7.9264Z" fill="url(#paint48_linear_301_3035)"/>
<path d="M1293.65 21.9173C1295.66 21.9173 1297.18 22.768 1298.21 24.4694C1299.26 26.1522 1299.78 28.6015 1299.78 31.8174C1299.78 35.0334 1299.26 37.492 1298.21 39.1935C1297.18 40.8949 1295.66 41.7457 1293.65 41.7457C1291.66 41.7457 1290.15 40.8949 1289.1 39.1935C1288.05 37.492 1287.52 35.0334 1287.52 31.8174C1287.52 28.6202 1288.05 26.1709 1289.1 24.4694C1290.15 22.768 1291.66 21.9173 1293.65 21.9173ZM1289.52 31.8174C1289.52 34.0985 1289.72 35.8841 1290.14 37.1742L1296.38 24.7499C1295.72 23.8711 1294.81 23.4317 1293.65 23.4317C1292.36 23.4317 1291.35 24.1235 1290.61 25.5071C1289.88 26.872 1289.52 28.9755 1289.52 31.8174ZM1293.65 40.2031C1294.96 40.2031 1295.99 39.5207 1296.72 38.1558C1297.45 36.7722 1297.81 34.6594 1297.81 31.8174C1297.81 29.4055 1297.58 27.5358 1297.11 26.2083L1290.87 38.7448C1291.54 39.717 1292.47 40.2031 1293.65 40.2031Z" fill="url(#paint49_linear_301_3035)"/>
<path d="M1295.34 72.0311H1299.47V73.5176H1288.76V72.0311H1293.54V56.2694L1288.98 58.9898L1288.2 57.7278L1293.82 54.2501H1295.34V72.0311Z" fill="url(#paint50_linear_301_3035)"/>
<path d="M1295.34 104.084H1299.47V105.57H1288.76V104.084H1293.54V88.3218L1288.98 91.0422L1288.2 89.7802L1293.82 86.3025H1295.34V104.084Z" fill="url(#paint51_linear_301_3035)"/>
<path d="M1293.65 118.074C1295.66 118.074 1297.18 118.925 1298.21 120.627C1299.26 122.309 1299.78 124.759 1299.78 127.975C1299.78 131.191 1299.26 133.649 1298.21 135.351C1297.18 137.052 1295.66 137.903 1293.65 137.903C1291.66 137.903 1290.15 137.052 1289.1 135.351C1288.05 133.649 1287.52 131.191 1287.52 127.975C1287.52 124.777 1288.05 122.328 1289.1 120.627C1290.15 118.925 1291.66 118.074 1293.65 118.074ZM1289.52 127.975C1289.52 130.256 1289.72 132.041 1290.14 133.331L1296.38 120.907C1295.72 120.028 1294.81 119.589 1293.65 119.589C1292.36 119.589 1291.35 120.281 1290.61 121.664C1289.88 123.029 1289.52 125.133 1289.52 127.975ZM1293.65 136.36C1294.96 136.36 1295.99 135.678 1296.72 134.313C1297.45 132.929 1297.81 130.817 1297.81 127.975C1297.81 125.563 1297.58 123.693 1297.11 122.365L1290.87 134.902C1291.54 135.874 1292.47 136.36 1293.65 136.36Z" fill="url(#paint52_linear_301_3035)"/>
<path d="M1295.34 168.188H1299.47V169.675H1288.76V168.188H1293.54V152.427L1288.98 155.147L1288.2 153.885L1293.82 150.407H1295.34V168.188Z" fill="url(#paint53_linear_301_3035)"/>
<path d="M1293.65 182.179C1295.66 182.179 1297.18 183.03 1298.21 184.731C1299.26 186.414 1299.78 188.863 1299.78 192.079C1299.78 195.295 1299.26 197.754 1298.21 199.455C1297.18 201.157 1295.66 202.008 1293.65 202.008C1291.66 202.008 1290.15 201.157 1289.1 199.455C1288.05 197.754 1287.52 195.295 1287.52 192.079C1287.52 188.882 1288.05 186.433 1289.1 184.731C1290.15 183.03 1291.66 182.179 1293.65 182.179ZM1289.52 192.079C1289.52 194.36 1289.72 196.146 1290.14 197.436L1296.38 185.012C1295.72 184.133 1294.81 183.694 1293.65 183.694C1292.36 183.694 1291.35 184.385 1290.61 185.769C1289.88 187.134 1289.52 189.237 1289.52 192.079ZM1293.65 200.465C1294.96 200.465 1295.99 199.783 1296.72 198.418C1297.45 197.034 1297.81 194.921 1297.81 192.079C1297.81 189.667 1297.58 187.798 1297.11 186.47L1290.87 199.007C1291.54 199.979 1292.47 200.465 1293.65 200.465Z" fill="url(#paint54_linear_301_3035)"/>
<path d="M1293.65 214.232C1295.66 214.232 1297.18 215.082 1298.21 216.784C1299.26 218.466 1299.78 220.916 1299.78 224.132C1299.78 227.348 1299.26 229.806 1298.21 231.508C1297.18 233.209 1295.66 234.06 1293.65 234.06C1291.66 234.06 1290.15 233.209 1289.1 231.508C1288.05 229.806 1287.52 227.348 1287.52 224.132C1287.52 220.935 1288.05 218.485 1289.1 216.784C1290.15 215.082 1291.66 214.232 1293.65 214.232ZM1289.52 224.132C1289.52 226.413 1289.72 228.198 1290.14 229.488L1296.38 217.064C1295.72 216.185 1294.81 215.746 1293.65 215.746C1292.36 215.746 1291.35 216.438 1290.61 217.821C1289.88 219.186 1289.52 221.29 1289.52 224.132ZM1293.65 232.517C1294.96 232.517 1295.99 231.835 1296.72 230.47C1297.45 229.086 1297.81 226.974 1297.81 224.132C1297.81 221.72 1297.58 219.85 1297.11 218.523L1290.87 231.059C1291.54 232.031 1292.47 232.517 1293.65 232.517Z" fill="url(#paint55_linear_301_3035)"/>
<path d="M1295.34 264.345H1299.47V265.832H1288.76V264.345H1293.54V248.584L1288.98 251.304L1288.2 250.042L1293.82 246.564H1295.34V264.345Z" fill="url(#paint56_linear_301_3035)"/>
<path d="M1293.65 278.336C1295.66 278.336 1297.18 279.187 1298.21 280.888C1299.26 282.571 1299.78 285.021 1299.78 288.236C1299.78 291.452 1299.26 293.911 1298.21 295.613C1297.18 297.314 1295.66 298.165 1293.65 298.165C1291.66 298.165 1290.15 297.314 1289.1 295.613C1288.05 293.911 1287.52 291.452 1287.52 288.236C1287.52 285.039 1288.05 282.59 1289.1 280.888C1290.15 279.187 1291.66 278.336 1293.65 278.336ZM1289.52 288.236C1289.52 290.518 1289.72 292.303 1290.14 293.593L1296.38 281.169C1295.72 280.29 1294.81 279.851 1293.65 279.851C1292.36 279.851 1291.35 280.543 1290.61 281.926C1289.88 283.291 1289.52 285.394 1289.52 288.236ZM1293.65 296.622C1294.96 296.622 1295.99 295.94 1296.72 294.575C1297.45 293.191 1297.81 291.078 1297.81 288.236C1297.81 285.825 1297.58 283.955 1297.11 282.627L1290.87 295.164C1291.54 296.136 1292.47 296.622 1293.65 296.622Z" fill="url(#paint57_linear_301_3035)"/>
<path d="M1295.34 328.45H1299.47V329.937H1288.76V328.45H1293.54V312.688L1288.98 315.409L1288.2 314.147L1293.82 310.669H1295.34V328.45Z" fill="url(#paint58_linear_301_3035)"/>
<path d="M1295.34 360.503H1299.47V361.989H1288.76V360.503H1293.54V344.741L1288.98 347.461L1288.2 346.199L1293.82 342.722H1295.34V360.503Z" fill="url(#paint59_linear_301_3035)"/>
<path d="M1345.88 21.9173C1347.89 21.9173 1349.4 22.768 1350.44 24.4694C1351.49 26.1522 1352.01 28.6015 1352.01 31.8174C1352.01 35.0334 1351.49 37.492 1350.44 39.1935C1349.4 40.8949 1347.89 41.7457 1345.88 41.7457C1343.89 41.7457 1342.37 40.8949 1341.32 39.1935C1340.27 37.492 1339.75 35.0334 1339.75 31.8174C1339.75 28.6202 1340.27 26.1709 1341.32 24.4694C1342.37 22.768 1343.89 21.9173 1345.88 21.9173ZM1341.75 31.8174C1341.75 34.0985 1341.95 35.8841 1342.36 37.1742L1348.61 24.7499C1347.95 23.8711 1347.04 23.4317 1345.88 23.4317C1344.59 23.4317 1343.57 24.1235 1342.84 25.5071C1342.11 26.872 1341.75 28.9755 1341.75 31.8174ZM1345.88 40.2031C1347.19 40.2031 1348.21 39.5207 1348.95 38.1558C1349.68 36.7722 1350.04 34.6594 1350.04 31.8174C1350.04 29.4055 1349.81 27.5358 1349.34 26.2083L1343.1 38.7448C1343.77 39.717 1344.7 40.2031 1345.88 40.2031Z" fill="url(#paint60_linear_301_3035)"/>
<path d="M1347.57 72.0311H1351.7V73.5176H1340.99V72.0311H1345.77V56.2694L1341.21 58.9898L1340.42 57.7278L1346.05 54.2501H1347.57V72.0311Z" fill="url(#paint61_linear_301_3035)"/>
<path d="M1345.88 86.022C1347.89 86.022 1349.4 86.8727 1350.44 88.5742C1351.49 90.2569 1352.01 92.7063 1352.01 95.9222C1352.01 99.1381 1351.49 101.597 1350.44 103.298C1349.4 105 1347.89 105.85 1345.88 105.85C1343.89 105.85 1342.37 105 1341.32 103.298C1340.27 101.597 1339.75 99.1381 1339.75 95.9222C1339.75 92.725 1340.27 90.2756 1341.32 88.5742C1342.37 86.8727 1343.89 86.022 1345.88 86.022ZM1341.75 95.9222C1341.75 98.2033 1341.95 99.9888 1342.36 101.279L1348.61 88.8546C1347.95 87.9759 1347.04 87.5365 1345.88 87.5365C1344.59 87.5365 1343.57 88.2283 1342.84 89.6119C1342.11 90.9768 1341.75 93.0802 1341.75 95.9222ZM1345.88 104.308C1347.19 104.308 1348.21 103.625 1348.95 102.261C1349.68 100.877 1350.04 98.7642 1350.04 95.9222C1350.04 93.5103 1349.81 91.6405 1349.34 90.313L1343.1 102.85C1343.77 103.822 1344.7 104.308 1345.88 104.308Z" fill="url(#paint62_linear_301_3035)"/>
<path d="M1345.88 118.074C1347.89 118.074 1349.4 118.925 1350.44 120.627C1351.49 122.309 1352.01 124.759 1352.01 127.975C1352.01 131.191 1351.49 133.649 1350.44 135.351C1349.4 137.052 1347.89 137.903 1345.88 137.903C1343.89 137.903 1342.37 137.052 1341.32 135.351C1340.27 133.649 1339.75 131.191 1339.75 127.975C1339.75 124.777 1340.27 122.328 1341.32 120.627C1342.37 118.925 1343.89 118.074 1345.88 118.074ZM1341.75 127.975C1341.75 130.256 1341.95 132.041 1342.36 133.331L1348.61 120.907C1347.95 120.028 1347.04 119.589 1345.88 119.589C1344.59 119.589 1343.57 120.281 1342.84 121.664C1342.11 123.029 1341.75 125.133 1341.75 127.975ZM1345.88 136.36C1347.19 136.36 1348.21 135.678 1348.95 134.313C1349.68 132.929 1350.04 130.817 1350.04 127.975C1350.04 125.563 1349.81 123.693 1349.34 122.365L1343.1 134.902C1343.77 135.874 1344.7 136.36 1345.88 136.36Z" fill="url(#paint63_linear_301_3035)"/>
<path d="M1347.57 168.188H1351.7V169.675H1340.99V168.188H1345.77V152.427L1341.21 155.147L1340.42 153.885L1346.05 150.407H1347.57V168.188Z" fill="url(#paint64_linear_301_3035)"/>
<path d="M1345.88 182.179C1347.89 182.179 1349.4 183.03 1350.44 184.731C1351.49 186.414 1352.01 188.863 1352.01 192.079C1352.01 195.295 1351.49 197.754 1350.44 199.455C1349.4 201.157 1347.89 202.008 1345.88 202.008C1343.89 202.008 1342.37 201.157 1341.32 199.455C1340.27 197.754 1339.75 195.295 1339.75 192.079C1339.75 188.882 1340.27 186.433 1341.32 184.731C1342.37 183.03 1343.89 182.179 1345.88 182.179ZM1341.75 192.079C1341.75 194.36 1341.95 196.146 1342.36 197.436L1348.61 185.012C1347.95 184.133 1347.04 183.694 1345.88 183.694C1344.59 183.694 1343.57 184.385 1342.84 185.769C1342.11 187.134 1341.75 189.237 1341.75 192.079ZM1345.88 200.465C1347.19 200.465 1348.21 199.783 1348.95 198.418C1349.68 197.034 1350.04 194.921 1350.04 192.079C1350.04 189.667 1349.81 187.798 1349.34 186.47L1343.1 199.007C1343.77 199.979 1344.7 200.465 1345.88 200.465Z" fill="url(#paint65_linear_301_3035)"/>
<path d="M1347.57 232.293H1351.7V233.779H1340.99V232.293H1345.77V216.531L1341.21 219.252L1340.42 217.99L1346.05 214.512H1347.57V232.293Z" fill="url(#paint66_linear_301_3035)"/>
<path d="M1345.88 246.284C1347.89 246.284 1349.4 247.135 1350.44 248.836C1351.49 250.519 1352.01 252.968 1352.01 256.184C1352.01 259.4 1351.49 261.859 1350.44 263.56C1349.4 265.262 1347.89 266.112 1345.88 266.112C1343.89 266.112 1342.37 265.262 1341.32 263.56C1340.27 261.859 1339.75 259.4 1339.75 256.184C1339.75 252.987 1340.27 250.538 1341.32 248.836C1342.37 247.135 1343.89 246.284 1345.88 246.284ZM1341.75 256.184C1341.75 258.465 1341.95 260.251 1342.36 261.541L1348.61 249.117C1347.95 248.238 1347.04 247.798 1345.88 247.798C1344.59 247.798 1343.57 248.49 1342.84 249.874C1342.11 251.239 1341.75 253.342 1341.75 256.184ZM1345.88 264.57C1347.19 264.57 1348.21 263.887 1348.95 262.522C1349.68 261.139 1350.04 259.026 1350.04 256.184C1350.04 253.772 1349.81 251.902 1349.34 250.575L1343.1 263.111C1343.77 264.084 1344.7 264.57 1345.88 264.57Z" fill="url(#paint67_linear_301_3035)"/>
<path d="M1345.88 278.336C1347.89 278.336 1349.4 279.187 1350.44 280.888C1351.49 282.571 1352.01 285.021 1352.01 288.236C1352.01 291.452 1351.49 293.911 1350.44 295.613C1349.4 297.314 1347.89 298.165 1345.88 298.165C1343.89 298.165 1342.37 297.314 1341.32 295.613C1340.27 293.911 1339.75 291.452 1339.75 288.236C1339.75 285.039 1340.27 282.59 1341.32 280.888C1342.37 279.187 1343.89 278.336 1345.88 278.336ZM1341.75 288.236C1341.75 290.518 1341.95 292.303 1342.36 293.593L1348.61 281.169C1347.95 280.29 1347.04 279.851 1345.88 279.851C1344.59 279.851 1343.57 280.543 1342.84 281.926C1342.11 283.291 1341.75 285.394 1341.75 288.236ZM1345.88 296.622C1347.19 296.622 1348.21 295.94 1348.95 294.575C1349.68 293.191 1350.04 291.078 1350.04 288.236C1350.04 285.825 1349.81 283.955 1349.34 282.627L1343.1 295.164C1343.77 296.136 1344.7 296.622 1345.88 296.622Z" fill="url(#paint68_linear_301_3035)"/>
<path d="M1347.57 328.45H1351.7V329.937H1340.99V328.45H1345.77V312.688L1341.21 315.409L1340.42 314.147L1346.05 310.669H1347.57V328.45Z" fill="url(#paint69_linear_301_3035)"/>
<path d="M1345.88 342.441C1347.89 342.441 1349.4 343.292 1350.44 344.993C1351.49 346.676 1352.01 349.125 1352.01 352.341C1352.01 355.557 1351.49 358.016 1350.44 359.717C1349.4 361.419 1347.89 362.269 1345.88 362.269C1343.89 362.269 1342.37 361.419 1341.32 359.717C1340.27 358.016 1339.75 355.557 1339.75 352.341C1339.75 349.144 1340.27 346.695 1341.32 344.993C1342.37 343.292 1343.89 342.441 1345.88 342.441ZM1341.75 352.341C1341.75 354.622 1341.95 356.408 1342.36 357.698L1348.61 345.274C1347.95 344.395 1347.04 343.956 1345.88 343.956C1344.59 343.956 1343.57 344.647 1342.84 346.031C1342.11 347.396 1341.75 349.499 1341.75 352.341ZM1345.88 360.727C1347.19 360.727 1348.21 360.044 1348.95 358.68C1349.68 357.296 1350.04 355.183 1350.04 352.341C1350.04 349.929 1349.81 348.06 1349.34 346.732L1343.1 359.269C1343.77 360.241 1344.7 360.727 1345.88 360.727Z" fill="url(#paint70_linear_301_3035)"/>
<path d="M1347.57 392.555H1351.7V394.041H1340.99V392.555H1345.77V376.793L1341.21 379.514L1340.42 378.252L1346.05 374.774H1347.57V392.555Z" fill="url(#paint71_linear_301_3035)"/>
<path d="M1347.57 424.607H1351.7V426.094H1340.99V424.607H1345.77V408.846L1341.21 411.566L1340.42 410.304L1346.05 406.826H1347.57V424.607Z" fill="url(#paint72_linear_301_3035)"/>
<path d="M1267.54 53.9696C1269.54 53.9696 1271.06 54.8204 1272.09 56.5218C1273.14 58.2046 1273.67 60.6539 1273.67 63.8698C1273.67 67.0857 1273.14 69.5444 1272.09 71.2459C1271.06 72.9473 1269.54 73.798 1267.54 73.798C1265.55 73.798 1264.03 72.9473 1262.98 71.2459C1261.93 69.5444 1261.41 67.0857 1261.41 63.8698C1261.41 60.6726 1261.93 58.2233 1262.98 56.5218C1264.03 54.8204 1265.55 53.9696 1267.54 53.9696ZM1263.4 63.8698C1263.4 66.1509 1263.61 67.9365 1264.02 69.2266L1270.27 56.8023C1269.61 55.9235 1268.7 55.4841 1267.54 55.4841C1266.24 55.4841 1265.23 56.1759 1264.5 57.5595C1263.77 58.9244 1263.4 61.0278 1263.4 63.8698ZM1267.54 72.2555C1268.85 72.2555 1269.87 71.5731 1270.6 70.2082C1271.33 68.8246 1271.7 66.7118 1271.7 63.8698C1271.7 61.4579 1271.46 59.5881 1271 58.2606L1264.75 70.7971C1265.43 71.7694 1266.36 72.2555 1267.54 72.2555Z" fill="url(#paint73_linear_301_3035)"/>
<path d="M1267.54 86.022C1269.54 86.022 1271.06 86.8727 1272.09 88.5742C1273.14 90.2569 1273.67 92.7063 1273.67 95.9222C1273.67 99.1381 1273.14 101.597 1272.09 103.298C1271.06 105 1269.54 105.85 1267.54 105.85C1265.55 105.85 1264.03 105 1262.98 103.298C1261.93 101.597 1261.41 99.1381 1261.41 95.9222C1261.41 92.725 1261.93 90.2756 1262.98 88.5742C1264.03 86.8727 1265.55 86.022 1267.54 86.022ZM1263.4 95.9222C1263.4 98.2033 1263.61 99.9888 1264.02 101.279L1270.27 88.8546C1269.61 87.9759 1268.7 87.5365 1267.54 87.5365C1266.24 87.5365 1265.23 88.2283 1264.5 89.6119C1263.77 90.9768 1263.4 93.0802 1263.4 95.9222ZM1267.54 104.308C1268.85 104.308 1269.87 103.625 1270.6 102.261C1271.33 100.877 1271.7 98.7642 1271.7 95.9222C1271.7 93.5103 1271.46 91.6405 1271 90.313L1264.75 102.85C1265.43 103.822 1266.36 104.308 1267.54 104.308Z" fill="url(#paint74_linear_301_3035)"/>
<path d="M1269.22 136.136H1273.36V137.622H1262.64V136.136H1267.42V120.374L1262.87 123.095L1262.08 121.833L1267.71 118.355H1269.22V136.136Z" fill="url(#paint75_linear_301_3035)"/>
<path d="M1267.54 150.127C1269.54 150.127 1271.06 150.978 1272.09 152.679C1273.14 154.362 1273.67 156.811 1273.67 160.027C1273.67 163.243 1273.14 165.702 1272.09 167.403C1271.06 169.104 1269.54 169.955 1267.54 169.955C1265.55 169.955 1264.03 169.104 1262.98 167.403C1261.93 165.702 1261.41 163.243 1261.41 160.027C1261.41 156.83 1261.93 154.38 1262.98 152.679C1264.03 150.978 1265.55 150.127 1267.54 150.127ZM1263.4 160.027C1263.4 162.308 1263.61 164.094 1264.02 165.384L1270.27 152.959C1269.61 152.081 1268.7 151.641 1267.54 151.641C1266.24 151.641 1265.23 152.333 1264.5 153.717C1263.77 155.082 1263.4 157.185 1263.4 160.027ZM1267.54 168.413C1268.85 168.413 1269.87 167.73 1270.6 166.365C1271.33 164.982 1271.7 162.869 1271.7 160.027C1271.7 157.615 1271.46 155.745 1271 154.418L1264.75 166.954C1265.43 167.927 1266.36 168.413 1267.54 168.413Z" fill="url(#paint76_linear_301_3035)"/>
<path d="M1269.22 200.241H1273.36V201.727H1262.64V200.241H1267.42V184.479L1262.87 187.199L1262.08 185.937L1267.71 182.46H1269.22V200.241Z" fill="url(#paint77_linear_301_3035)"/>
<path d="M1269.22 232.293H1273.36V233.779H1262.64V232.293H1267.42V216.531L1262.87 219.252L1262.08 217.99L1267.71 214.512H1269.22V232.293Z" fill="url(#paint78_linear_301_3035)"/>
<path d="M1321.45 7.9264H1325.59V9.41282H1314.87V7.9264H1319.65V-7.83536L1315.1 -5.11492L1314.31 -6.37698L1319.93 -9.85466H1321.45V7.9264Z" fill="url(#paint79_linear_301_3035)"/>
<path d="M1319.77 21.9173C1321.77 21.9173 1323.29 22.768 1324.32 24.4694C1325.37 26.1522 1325.9 28.6015 1325.9 31.8174C1325.9 35.0334 1325.37 37.492 1324.32 39.1935C1323.29 40.8949 1321.77 41.7457 1319.77 41.7457C1317.78 41.7457 1316.26 40.8949 1315.21 39.1935C1314.16 37.492 1313.63 35.0334 1313.63 31.8174C1313.63 28.6202 1314.16 26.1709 1315.21 24.4694C1316.26 22.768 1317.78 21.9173 1319.77 21.9173ZM1315.63 31.8174C1315.63 34.0985 1315.84 35.8841 1316.25 37.1742L1322.49 24.7499C1321.84 23.8711 1320.93 23.4317 1319.77 23.4317C1318.47 23.4317 1317.46 24.1235 1316.73 25.5071C1316 26.872 1315.63 28.9755 1315.63 31.8174ZM1319.77 40.2031C1321.08 40.2031 1322.1 39.5207 1322.83 38.1558C1323.56 36.7722 1323.93 34.6594 1323.93 31.8174C1323.93 29.4055 1323.69 27.5358 1323.22 26.2083L1316.98 38.7448C1317.66 39.717 1318.58 40.2031 1319.77 40.2031Z" fill="url(#paint80_linear_301_3035)"/>
<path d="M1321.45 72.0311H1325.59V73.5176H1314.87V72.0311H1319.65V56.2694L1315.1 58.9898L1314.31 57.7278L1319.93 54.2501H1321.45V72.0311Z" fill="url(#paint81_linear_301_3035)"/>
<path d="M1321.45 104.084H1325.59V105.57H1314.87V104.084H1319.65V88.3218L1315.1 91.0422L1314.31 89.7802L1319.93 86.3025H1321.45V104.084Z" fill="url(#paint82_linear_301_3035)"/>
<path d="M1319.77 118.074C1321.77 118.074 1323.29 118.925 1324.32 120.627C1325.37 122.309 1325.9 124.759 1325.9 127.975C1325.9 131.191 1325.37 133.649 1324.32 135.351C1323.29 137.052 1321.77 137.903 1319.77 137.903C1317.78 137.903 1316.26 137.052 1315.21 135.351C1314.16 133.649 1313.63 131.191 1313.63 127.975C1313.63 124.777 1314.16 122.328 1315.21 120.627C1316.26 118.925 1317.78 118.074 1319.77 118.074ZM1315.63 127.975C1315.63 130.256 1315.84 132.041 1316.25 133.331L1322.49 120.907C1321.84 120.028 1320.93 119.589 1319.77 119.589C1318.47 119.589 1317.46 120.281 1316.73 121.664C1316 123.029 1315.63 125.133 1315.63 127.975ZM1319.77 136.36C1321.08 136.36 1322.1 135.678 1322.83 134.313C1323.56 132.929 1323.93 130.817 1323.93 127.975C1323.93 125.563 1323.69 123.693 1323.22 122.365L1316.98 134.902C1317.66 135.874 1318.58 136.36 1319.77 136.36Z" fill="url(#paint83_linear_301_3035)"/>
<path d="M1321.45 168.188H1325.59V169.675H1314.87V168.188H1319.65V152.427L1315.1 155.147L1314.31 153.885L1319.93 150.407H1321.45V168.188Z" fill="url(#paint84_linear_301_3035)"/>
<path d="M1321.45 200.241H1325.59V201.727H1314.87V200.241H1319.65V184.479L1315.1 187.199L1314.31 185.937L1319.93 182.46H1321.45V200.241Z" fill="url(#paint85_linear_301_3035)"/>
<path d="M1319.77 214.232C1321.77 214.232 1323.29 215.082 1324.32 216.784C1325.37 218.466 1325.9 220.916 1325.9 224.132C1325.9 227.348 1325.37 229.806 1324.32 231.508C1323.29 233.209 1321.77 234.06 1319.77 234.06C1317.78 234.06 1316.26 233.209 1315.21 231.508C1314.16 229.806 1313.63 227.348 1313.63 224.132C1313.63 220.935 1314.16 218.485 1315.21 216.784C1316.26 215.082 1317.78 214.232 1319.77 214.232ZM1315.63 224.132C1315.63 226.413 1315.84 228.198 1316.25 229.488L1322.49 217.064C1321.84 216.185 1320.93 215.746 1319.77 215.746C1318.47 215.746 1317.46 216.438 1316.73 217.821C1316 219.186 1315.63 221.29 1315.63 224.132ZM1319.77 232.517C1321.08 232.517 1322.1 231.835 1322.83 230.47C1323.56 229.086 1323.93 226.974 1323.93 224.132C1323.93 221.72 1323.69 219.85 1323.22 218.523L1316.98 231.059C1317.66 232.031 1318.58 232.517 1319.77 232.517Z" fill="url(#paint86_linear_301_3035)"/>
<path d="M1321.45 264.345H1325.59V265.832H1314.87V264.345H1319.65V248.584L1315.1 251.304L1314.31 250.042L1319.93 246.564H1321.45V264.345Z" fill="url(#paint87_linear_301_3035)"/>
<path d="M1319.77 278.336C1321.77 278.336 1323.29 279.187 1324.32 280.888C1325.37 282.571 1325.9 285.021 1325.9 288.236C1325.9 291.452 1325.37 293.911 1324.32 295.613C1323.29 297.314 1321.77 298.165 1319.77 298.165C1317.78 298.165 1316.26 297.314 1315.21 295.613C1314.16 293.911 1313.63 291.452 1313.63 288.236C1313.63 285.039 1314.16 282.59 1315.21 280.888C1316.26 279.187 1317.78 278.336 1319.77 278.336ZM1315.63 288.236C1315.63 290.518 1315.84 292.303 1316.25 293.593L1322.49 281.169C1321.84 280.29 1320.93 279.851 1319.77 279.851C1318.47 279.851 1317.46 280.543 1316.73 281.926C1316 283.291 1315.63 285.394 1315.63 288.236ZM1319.77 296.622C1321.08 296.622 1322.1 295.94 1322.83 294.575C1323.56 293.191 1323.93 291.078 1323.93 288.236C1323.93 285.825 1323.69 283.955 1323.22 282.627L1316.98 295.164C1317.66 296.136 1318.58 296.622 1319.77 296.622Z" fill="url(#paint88_linear_301_3035)"/>
<path d="M1371.99 -10.1351C1374 -10.1351 1375.52 -9.2844 1376.55 -7.58295C1377.6 -5.9002 1378.13 -3.45087 1378.13 -0.234944C1378.13 2.98098 1377.6 5.43966 1376.55 7.14111C1375.52 8.84256 1374 9.69328 1371.99 9.69328C1370.01 9.69328 1368.49 8.84256 1367.44 7.14111C1366.39 5.43966 1365.86 2.98098 1365.86 -0.234944C1365.86 -3.43217 1366.39 -5.8815 1367.44 -7.58295C1368.49 -9.2844 1370.01 -10.1351 1371.99 -10.1351ZM1367.86 -0.234944C1367.86 2.04612 1368.07 3.83171 1368.48 5.12181L1374.72 -7.30249C1374.07 -8.18126 1373.16 -8.62064 1371.99 -8.62064C1370.7 -8.62064 1369.69 -7.92885 1368.96 -6.54526C1368.23 -5.18036 1367.86 -3.07692 1367.86 -0.234944ZM1371.99 8.15076C1373.31 8.15076 1374.33 7.46832 1375.06 6.10342C1375.79 4.71982 1376.16 2.60703 1376.16 -0.234944C1376.16 -2.64689 1375.92 -4.51661 1375.45 -5.84411L1369.21 6.69238C1369.88 7.66463 1370.81 8.15076 1371.99 8.15076Z" fill="url(#paint89_linear_301_3035)"/>
<path d="M1373.68 39.9788H1377.82V41.4652H1367.1V39.9788H1371.88V24.217L1367.33 26.9375L1366.54 25.6754L1372.16 22.1977H1373.68V39.9788Z" fill="url(#paint90_linear_301_3035)"/>
<path d="M1373.68 72.0311H1377.82V73.5176H1367.1V72.0311H1371.88V56.2694L1367.33 58.9898L1366.54 57.7278L1372.16 54.2501H1373.68V72.0311Z" fill="url(#paint91_linear_301_3035)"/>
<path d="M1371.99 86.022C1374 86.022 1375.52 86.8727 1376.55 88.5742C1377.6 90.2569 1378.13 92.7063 1378.13 95.9222C1378.13 99.1381 1377.6 101.597 1376.55 103.298C1375.52 105 1374 105.85 1371.99 105.85C1370.01 105.85 1368.49 105 1367.44 103.298C1366.39 101.597 1365.86 99.1381 1365.86 95.9222C1365.86 92.725 1366.39 90.2756 1367.44 88.5742C1368.49 86.8727 1370.01 86.022 1371.99 86.022ZM1367.86 95.9222C1367.86 98.2033 1368.07 99.9888 1368.48 101.279L1374.72 88.8546C1374.07 87.9759 1373.16 87.5365 1371.99 87.5365C1370.7 87.5365 1369.69 88.2283 1368.96 89.6119C1368.23 90.9768 1367.86 93.0802 1367.86 95.9222ZM1371.99 104.308C1373.31 104.308 1374.33 103.625 1375.06 102.261C1375.79 100.877 1376.16 98.7642 1376.16 95.9222C1376.16 93.5103 1375.92 91.6405 1375.45 90.313L1369.21 102.85C1369.88 103.822 1370.81 104.308 1371.99 104.308Z" fill="url(#paint92_linear_301_3035)"/>
<path d="M1371.99 118.074C1374 118.074 1375.52 118.925 1376.55 120.627C1377.6 122.309 1378.13 124.759 1378.13 127.975C1378.13 131.191 1377.6 133.649 1376.55 135.351C1375.52 137.052 1374 137.903 1371.99 137.903C1370.01 137.903 1368.49 137.052 1367.44 135.351C1366.39 133.649 1365.86 131.191 1365.86 127.975C1365.86 124.777 1366.39 122.328 1367.44 120.627C1368.49 118.925 1370.01 118.074 1371.99 118.074ZM1367.86 127.975C1367.86 130.256 1368.07 132.041 1368.48 133.331L1374.72 120.907C1374.07 120.028 1373.16 119.589 1371.99 119.589C1370.7 119.589 1369.69 120.281 1368.96 121.664C1368.23 123.029 1367.86 125.133 1367.86 127.975ZM1371.99 136.36C1373.31 136.36 1374.33 135.678 1375.06 134.313C1375.79 132.929 1376.16 130.817 1376.16 127.975C1376.16 125.563 1375.92 123.693 1375.45 122.365L1369.21 134.902C1369.88 135.874 1370.81 136.36 1371.99 136.36Z" fill="url(#paint93_linear_301_3035)"/>
</g>
</g>
<defs>
<filter id="filter0_f_301_3035" x="-784.955" y="-1007.14" width="3011.32" height="2109.91" filterUnits="userSpaceOnUse" color-interpolation-filters="sRGB">
<feFlood flood-opacity="0" result="BackgroundImageFix"/>
<feBlend mode="normal" in="SourceGraphic" in2="BackgroundImageFix" result="shape"/>
<feGaussianBlur stdDeviation="281.384" result="effect1_foregroundBlur_301_3035"/>
</filter>
<linearGradient id="paint0_linear_301_3035" x1="73.8281" y1="379.688" x2="73.8281" y2="817.567" gradientUnits="userSpaceOnUse">
<stop stop-color="#F7DD43"/>
<stop offset="1" stop-color="#F7DD43" stop-opacity="0"/>
</linearGradient>
<linearGradient id="paint1_linear_301_3035" x1="73.8281" y1="379.688" x2="73.8281" y2="817.567" gradientUnits="userSpaceOnUse">
<stop stop-color="#F7DD43"/>
<stop offset="1" stop-color="#F7DD43" stop-opacity="0"/>
</linearGradient>
<linearGradient id="paint2_linear_301_3035" x1="73.8281" y1="379.688" x2="73.8281" y2="817.567" gradientUnits="userSpaceOnUse">
<stop stop-color="#F7DD43"/>
<stop offset="1" stop-color="#F7DD43" stop-opacity="0"/>
</linearGradient>
<linearGradient id="paint3_linear_301_3035" x1="73.8281" y1="379.688" x2="73.8281" y2="817.567" gradientUnits="userSpaceOnUse">
<stop stop-color="#F7DD43"/>
<stop offset="1" stop-color="#F7DD43" stop-opacity="0"/>
</linearGradient>
<linearGradient id="paint4_linear_301_3035" x1="73.8281" y1="379.688" x2="73.8281" y2="817.567" gradientUnits="userSpaceOnUse">
<stop stop-color="#F7DD43"/>
<stop offset="1" stop-color="#F7DD43" stop-opacity="0"/>
</linearGradient>
<linearGradient id="paint5_linear_301_3035" x1="73.8281" y1="379.688" x2="73.8281" y2="817.567" gradientUnits="userSpaceOnUse">
<stop stop-color="#F7DD43"/>
<stop offset="1" stop-color="#F7DD43" stop-opacity="0"/>
</linearGradient>
<linearGradient id="paint6_linear_301_3035" x1="73.8281" y1="379.688" x2="73.8281" y2="817.567" gradientUnits="userSpaceOnUse">
<stop stop-color="#F7DD43"/>
<stop offset="1" stop-color="#F7DD43" stop-opacity="0"/>
</linearGradient>
<linearGradient id="paint7_linear_301_3035" x1="73.8281" y1="379.688" x2="73.8281" y2="817.567" gradientUnits="userSpaceOnUse">
<stop stop-color="#F7DD43"/>
<stop offset="1" stop-color="#F7DD43" stop-opacity="0"/>
</linearGradient>
<linearGradient id="paint8_linear_301_3035" x1="73.8281" y1="379.688" x2="73.8281" y2="817.567" gradientUnits="userSpaceOnUse">
<stop stop-color="#F7DD43"/>
<stop offset="1" stop-color="#F7DD43" stop-opacity="0"/>
</linearGradient>
<linearGradient id="paint9_linear_301_3035" x1="73.8281" y1="379.688" x2="73.8281" y2="817.567" gradientUnits="userSpaceOnUse">
<stop stop-color="#F7DD43"/>
<stop offset="1" stop-color="#F7DD43" stop-opacity="0"/>
</linearGradient>
<linearGradient id="paint10_linear_301_3035" x1="73.8281" y1="379.688" x2="73.8281" y2="817.567" gradientUnits="userSpaceOnUse">
<stop stop-color="#F7DD43"/>
<stop offset="1" stop-color="#F7DD43" stop-opacity="0"/>
</linearGradient>
<linearGradient id="paint11_linear_301_3035" x1="73.8281" y1="379.688" x2="73.8281" y2="817.567" gradientUnits="userSpaceOnUse">
<stop stop-color="#F7DD43"/>
<stop offset="1" stop-color="#F7DD43" stop-opacity="0"/>
</linearGradient>
<linearGradient id="paint12_linear_301_3035" x1="73.8281" y1="379.688" x2="73.8281" y2="817.567" gradientUnits="userSpaceOnUse">
<stop stop-color="#F7DD43"/>
<stop offset="1" stop-color="#F7DD43" stop-opacity="0"/>
</linearGradient>
<linearGradient id="paint13_linear_301_3035" x1="73.8281" y1="379.688" x2="73.8281" y2="817.567" gradientUnits="userSpaceOnUse">
<stop stop-color="#F7DD43"/>
<stop offset="1" stop-color="#F7DD43" stop-opacity="0"/>
</linearGradient>
<linearGradient id="paint14_linear_301_3035" x1="73.8281" y1="379.688" x2="73.8281" y2="817.567" gradientUnits="userSpaceOnUse">
<stop stop-color="#F7DD43"/>
<stop offset="1" stop-color="#F7DD43" stop-opacity="0"/>
</linearGradient>
<linearGradient id="paint15_linear_301_3035" x1="73.8281" y1="379.688" x2="73.8281" y2="817.567" gradientUnits="userSpaceOnUse">
<stop stop-color="#F7DD43"/>
<stop offset="1" stop-color="#F7DD43" stop-opacity="0"/>
</linearGradient>
<linearGradient id="paint16_linear_301_3035" x1="73.8281" y1="379.688" x2="73.8281" y2="817.567" gradientUnits="userSpaceOnUse">
<stop stop-color="#F7DD43"/>
<stop offset="1" stop-color="#F7DD43" stop-opacity="0"/>
</linearGradient>
<linearGradient id="paint17_linear_301_3035" x1="73.8281" y1="379.688" x2="73.8281" y2="817.567" gradientUnits="userSpaceOnUse">
<stop stop-color="#F7DD43"/>
<stop offset="1" stop-color="#F7DD43" stop-opacity="0"/>
</linearGradient>
<linearGradient id="paint18_linear_301_3035" x1="73.8281" y1="379.688" x2="73.8281" y2="817.567" gradientUnits="userSpaceOnUse">
<stop stop-color="#F7DD43"/>
<stop offset="1" stop-color="#F7DD43" stop-opacity="0"/>
</linearGradient>
<linearGradient id="paint19_linear_301_3035" x1="73.8281" y1="379.688" x2="73.8281" y2="817.567" gradientUnits="userSpaceOnUse">
<stop stop-color="#F7DD43"/>
<stop offset="1" stop-color="#F7DD43" stop-opacity="0"/>
</linearGradient>
<linearGradient id="paint20_linear_301_3035" x1="73.8281" y1="379.688" x2="73.8281" y2="817.567" gradientUnits="userSpaceOnUse">
<stop stop-color="#F7DD43"/>
<stop offset="1" stop-color="#F7DD43" stop-opacity="0"/>
</linearGradient>
<linearGradient id="paint21_linear_301_3035" x1="73.8281" y1="379.688" x2="73.8281" y2="817.567" gradientUnits="userSpaceOnUse">
<stop stop-color="#F7DD43"/>
<stop offset="1" stop-color="#F7DD43" stop-opacity="0"/>
</linearGradient>
<linearGradient id="paint22_linear_301_3035" x1="73.8281" y1="379.688" x2="73.8281" y2="817.567" gradientUnits="userSpaceOnUse">
<stop stop-color="#F7DD43"/>
<stop offset="1" stop-color="#F7DD43" stop-opacity="0"/>
</linearGradient>
<linearGradient id="paint23_linear_301_3035" x1="73.8281" y1="379.688" x2="73.8281" y2="817.567" gradientUnits="userSpaceOnUse">
<stop stop-color="#F7DD43"/>
<stop offset="1" stop-color="#F7DD43" stop-opacity="0"/>
</linearGradient>
<linearGradient id="paint24_linear_301_3035" x1="73.8281" y1="379.688" x2="73.8281" y2="817.567" gradientUnits="userSpaceOnUse">
<stop stop-color="#F7DD43"/>
<stop offset="1" stop-color="#F7DD43" stop-opacity="0"/>
</linearGradient>
<linearGradient id="paint25_linear_301_3035" x1="73.8281" y1="379.688" x2="73.8281" y2="817.567" gradientUnits="userSpaceOnUse">
<stop stop-color="#F7DD43"/>
<stop offset="1" stop-color="#F7DD43" stop-opacity="0"/>
</linearGradient>
<linearGradient id="paint26_linear_301_3035" x1="73.8281" y1="379.688" x2="73.8281" y2="817.567" gradientUnits="userSpaceOnUse">
<stop stop-color="#F7DD43"/>
<stop offset="1" stop-color="#F7DD43" stop-opacity="0"/>
</linearGradient>
<linearGradient id="paint27_linear_301_3035" x1="73.8281" y1="379.688" x2="73.8281" y2="817.567" gradientUnits="userSpaceOnUse">
<stop stop-color="#F7DD43"/>
<stop offset="1" stop-color="#F7DD43" stop-opacity="0"/>
</linearGradient>
<linearGradient id="paint28_linear_301_3035" x1="73.8281" y1="379.688" x2="73.8281" y2="817.567" gradientUnits="userSpaceOnUse">
<stop stop-color="#F7DD43"/>
<stop offset="1" stop-color="#F7DD43" stop-opacity="0"/>
</linearGradient>
<linearGradient id="paint29_linear_301_3035" x1="73.8281" y1="379.688" x2="73.8281" y2="817.567" gradientUnits="userSpaceOnUse">
<stop stop-color="#F7DD43"/>
<stop offset="1" stop-color="#F7DD43" stop-opacity="0"/>
</linearGradient>
<linearGradient id="paint30_linear_301_3035" x1="73.8281" y1="379.688" x2="73.8281" y2="817.567" gradientUnits="userSpaceOnUse">
<stop stop-color="#F7DD43"/>
<stop offset="1" stop-color="#F7DD43" stop-opacity="0"/>
</linearGradient>
<linearGradient id="paint31_linear_301_3035" x1="73.8281" y1="379.688" x2="73.8281" y2="817.567" gradientUnits="userSpaceOnUse">
<stop stop-color="#F7DD43"/>
<stop offset="1" stop-color="#F7DD43" stop-opacity="0"/>
</linearGradient>
<linearGradient id="paint32_linear_301_3035" x1="73.8281" y1="379.688" x2="73.8281" y2="817.567" gradientUnits="userSpaceOnUse">
<stop stop-color="#F7DD43"/>
<stop offset="1" stop-color="#F7DD43" stop-opacity="0"/>
</linearGradient>
<linearGradient id="paint33_linear_301_3035" x1="73.8281" y1="379.688" x2="73.8281" y2="817.567" gradientUnits="userSpaceOnUse">
<stop stop-color="#F7DD43"/>
<stop offset="1" stop-color="#F7DD43" stop-opacity="0"/>
</linearGradient>
<linearGradient id="paint34_linear_301_3035" x1="73.8281" y1="379.688" x2="73.8281" y2="817.567" gradientUnits="userSpaceOnUse">
<stop stop-color="#F7DD43"/>
<stop offset="1" stop-color="#F7DD43" stop-opacity="0"/>
</linearGradient>
<linearGradient id="paint35_linear_301_3035" x1="73.8281" y1="379.688" x2="73.8281" y2="817.567" gradientUnits="userSpaceOnUse">
<stop stop-color="#F7DD43"/>
<stop offset="1" stop-color="#F7DD43" stop-opacity="0"/>
</linearGradient>
<linearGradient id="paint36_linear_301_3035" x1="73.8281" y1="379.688" x2="73.8281" y2="817.567" gradientUnits="userSpaceOnUse">
<stop stop-color="#F7DD43"/>
<stop offset="1" stop-color="#F7DD43" stop-opacity="0"/>
</linearGradient>
<linearGradient id="paint37_linear_301_3035" x1="73.8281" y1="379.688" x2="73.8281" y2="817.567" gradientUnits="userSpaceOnUse">
<stop stop-color="#F7DD43"/>
<stop offset="1" stop-color="#F7DD43" stop-opacity="0"/>
</linearGradient>
<linearGradient id="paint38_linear_301_3035" x1="73.8281" y1="379.688" x2="73.8281" y2="817.567" gradientUnits="userSpaceOnUse">
<stop stop-color="#F7DD43"/>
<stop offset="1" stop-color="#F7DD43" stop-opacity="0"/>
</linearGradient>
<linearGradient id="paint39_linear_301_3035" x1="73.8281" y1="379.688" x2="73.8281" y2="817.567" gradientUnits="userSpaceOnUse">
<stop stop-color="#F7DD43"/>
<stop offset="1" stop-color="#F7DD43" stop-opacity="0"/>
</linearGradient>
<linearGradient id="paint40_linear_301_3035" x1="73.8281" y1="379.688" x2="73.8281" y2="817.567" gradientUnits="userSpaceOnUse">
<stop stop-color="#F7DD43"/>
<stop offset="1" stop-color="#F7DD43" stop-opacity="0"/>
</linearGradient>
<linearGradient id="paint41_linear_301_3035" x1="73.8281" y1="379.688" x2="73.8281" y2="817.567" gradientUnits="userSpaceOnUse">
<stop stop-color="#F7DD43"/>
<stop offset="1" stop-color="#F7DD43" stop-opacity="0"/>
</linearGradient>
<linearGradient id="paint42_linear_301_3035" x1="73.8281" y1="379.688" x2="73.8281" y2="817.567" gradientUnits="userSpaceOnUse">
<stop stop-color="#F7DD43"/>
<stop offset="1" stop-color="#F7DD43" stop-opacity="0"/>
</linearGradient>
<linearGradient id="paint43_linear_301_3035" x1="73.8281" y1="379.688" x2="73.8281" y2="817.567" gradientUnits="userSpaceOnUse">
<stop stop-color="#F7DD43"/>
<stop offset="1" stop-color="#F7DD43" stop-opacity="0"/>
</linearGradient>
<linearGradient id="paint44_linear_301_3035" x1="73.8281" y1="379.688" x2="73.8281" y2="817.567" gradientUnits="userSpaceOnUse">
<stop stop-color="#F7DD43"/>
<stop offset="1" stop-color="#F7DD43" stop-opacity="0"/>
</linearGradient>
<linearGradient id="paint45_linear_301_3035" x1="73.8281" y1="379.688" x2="73.8281" y2="817.567" gradientUnits="userSpaceOnUse">
<stop stop-color="#F7DD43"/>
<stop offset="1" stop-color="#F7DD43" stop-opacity="0"/>
</linearGradient>
<linearGradient id="paint46_linear_301_3035" x1="73.8281" y1="379.688" x2="73.8281" y2="817.567" gradientUnits="userSpaceOnUse">
<stop stop-color="#F7DD43"/>
<stop offset="1" stop-color="#F7DD43" stop-opacity="0"/>
</linearGradient>
<linearGradient id="paint47_linear_301_3035" x1="1319.77" y1="-42.1875" x2="1319.77" y2="378.025" gradientUnits="userSpaceOnUse">
<stop stop-color="#F7DD43"/>
<stop offset="1" stop-color="#F7DD43" stop-opacity="0"/>
</linearGradient>
<linearGradient id="paint48_linear_301_3035" x1="1319.77" y1="-42.1875" x2="1319.77" y2="378.025" gradientUnits="userSpaceOnUse">
<stop stop-color="#F7DD43"/>
<stop offset="1" stop-color="#F7DD43" stop-opacity="0"/>
</linearGradient>
<linearGradient id="paint49_linear_301_3035" x1="1319.77" y1="-42.1875" x2="1319.77" y2="378.025" gradientUnits="userSpaceOnUse">
<stop stop-color="#F7DD43"/>
<stop offset="1" stop-color="#F7DD43" stop-opacity="0"/>
</linearGradient>
<linearGradient id="paint50_linear_301_3035" x1="1319.77" y1="-42.1875" x2="1319.77" y2="378.025" gradientUnits="userSpaceOnUse">
<stop stop-color="#F7DD43"/>
<stop offset="1" stop-color="#F7DD43" stop-opacity="0"/>
</linearGradient>
<linearGradient id="paint51_linear_301_3035" x1="1319.77" y1="-42.1875" x2="1319.77" y2="378.025" gradientUnits="userSpaceOnUse">
<stop stop-color="#F7DD43"/>
<stop offset="1" stop-color="#F7DD43" stop-opacity="0"/>
</linearGradient>
<linearGradient id="paint52_linear_301_3035" x1="1319.77" y1="-42.1875" x2="1319.77" y2="378.025" gradientUnits="userSpaceOnUse">
<stop stop-color="#F7DD43"/>
<stop offset="1" stop-color="#F7DD43" stop-opacity="0"/>
</linearGradient>
<linearGradient id="paint53_linear_301_3035" x1="1319.77" y1="-42.1875" x2="1319.77" y2="378.025" gradientUnits="userSpaceOnUse">
<stop stop-color="#F7DD43"/>
<stop offset="1" stop-color="#F7DD43" stop-opacity="0"/>
</linearGradient>
<linearGradient id="paint54_linear_301_3035" x1="1319.77" y1="-42.1875" x2="1319.77" y2="378.025" gradientUnits="userSpaceOnUse">
<stop stop-color="#F7DD43"/>
<stop offset="1" stop-color="#F7DD43" stop-opacity="0"/>
</linearGradient>
<linearGradient id="paint55_linear_301_3035" x1="1319.77" y1="-42.1875" x2="1319.77" y2="378.025" gradientUnits="userSpaceOnUse">
<stop stop-color="#F7DD43"/>
<stop offset="1" stop-color="#F7DD43" stop-opacity="0"/>
</linearGradient>
<linearGradient id="paint56_linear_301_3035" x1="1319.77" y1="-42.1875" x2="1319.77" y2="378.025" gradientUnits="userSpaceOnUse">
<stop stop-color="#F7DD43"/>
<stop offset="1" stop-color="#F7DD43" stop-opacity="0"/>
</linearGradient>
<linearGradient id="paint57_linear_301_3035" x1="1319.77" y1="-42.1875" x2="1319.77" y2="378.025" gradientUnits="userSpaceOnUse">
<stop stop-color="#F7DD43"/>
<stop offset="1" stop-color="#F7DD43" stop-opacity="0"/>
</linearGradient>
<linearGradient id="paint58_linear_301_3035" x1="1319.77" y1="-42.1875" x2="1319.77" y2="378.025" gradientUnits="userSpaceOnUse">
<stop stop-color="#F7DD43"/>
<stop offset="1" stop-color="#F7DD43" stop-opacity="0"/>
</linearGradient>
<linearGradient id="paint59_linear_301_3035" x1="1319.77" y1="-42.1875" x2="1319.77" y2="378.025" gradientUnits="userSpaceOnUse">
<stop stop-color="#F7DD43"/>
<stop offset="1" stop-color="#F7DD43" stop-opacity="0"/>
</linearGradient>
<linearGradient id="paint60_linear_301_3035" x1="1319.77" y1="-42.1875" x2="1319.77" y2="378.025" gradientUnits="userSpaceOnUse">
<stop stop-color="#F7DD43"/>
<stop offset="1" stop-color="#F7DD43" stop-opacity="0"/>
</linearGradient>
<linearGradient id="paint61_linear_301_3035" x1="1319.77" y1="-42.1875" x2="1319.77" y2="378.025" gradientUnits="userSpaceOnUse">
<stop stop-color="#F7DD43"/>
<stop offset="1" stop-color="#F7DD43" stop-opacity="0"/>
</linearGradient>
<linearGradient id="paint62_linear_301_3035" x1="1319.77" y1="-42.1875" x2="1319.77" y2="378.025" gradientUnits="userSpaceOnUse">
<stop stop-color="#F7DD43"/>
<stop offset="1" stop-color="#F7DD43" stop-opacity="0"/>
</linearGradient>
<linearGradient id="paint63_linear_301_3035" x1="1319.77" y1="-42.1875" x2="1319.77" y2="378.025" gradientUnits="userSpaceOnUse">
<stop stop-color="#F7DD43"/>
<stop offset="1" stop-color="#F7DD43" stop-opacity="0"/>
</linearGradient>
<linearGradient id="paint64_linear_301_3035" x1="1319.77" y1="-42.1875" x2="1319.77" y2="378.025" gradientUnits="userSpaceOnUse">
<stop stop-color="#F7DD43"/>
<stop offset="1" stop-color="#F7DD43" stop-opacity="0"/>
</linearGradient>
<linearGradient id="paint65_linear_301_3035" x1="1319.77" y1="-42.1875" x2="1319.77" y2="378.025" gradientUnits="userSpaceOnUse">
<stop stop-color="#F7DD43"/>
<stop offset="1" stop-color="#F7DD43" stop-opacity="0"/>
</linearGradient>
<linearGradient id="paint66_linear_301_3035" x1="1319.77" y1="-42.1875" x2="1319.77" y2="378.025" gradientUnits="userSpaceOnUse">
<stop stop-color="#F7DD43"/>
<stop offset="1" stop-color="#F7DD43" stop-opacity="0"/>
</linearGradient>
<linearGradient id="paint67_linear_301_3035" x1="1319.77" y1="-42.1875" x2="1319.77" y2="378.025" gradientUnits="userSpaceOnUse">
<stop stop-color="#F7DD43"/>
<stop offset="1" stop-color="#F7DD43" stop-opacity="0"/>
</linearGradient>
<linearGradient id="paint68_linear_301_3035" x1="1319.77" y1="-42.1875" x2="1319.77" y2="378.025" gradientUnits="userSpaceOnUse">
<stop stop-color="#F7DD43"/>
<stop offset="1" stop-color="#F7DD43" stop-opacity="0"/>
</linearGradient>
<linearGradient id="paint69_linear_301_3035" x1="1319.77" y1="-42.1875" x2="1319.77" y2="378.025" gradientUnits="userSpaceOnUse">
<stop stop-color="#F7DD43"/>
<stop offset="1" stop-color="#F7DD43" stop-opacity="0"/>
</linearGradient>
<linearGradient id="paint70_linear_301_3035" x1="1319.77" y1="-42.1875" x2="1319.77" y2="378.025" gradientUnits="userSpaceOnUse">
<stop stop-color="#F7DD43"/>
<stop offset="1" stop-color="#F7DD43" stop-opacity="0"/>
</linearGradient>
<linearGradient id="paint71_linear_301_3035" x1="1319.77" y1="-42.1875" x2="1319.77" y2="378.025" gradientUnits="userSpaceOnUse">
<stop stop-color="#F7DD43"/>
<stop offset="1" stop-color="#F7DD43" stop-opacity="0"/>
</linearGradient>
<linearGradient id="paint72_linear_301_3035" x1="1319.77" y1="-42.1875" x2="1319.77" y2="378.025" gradientUnits="userSpaceOnUse">
<stop stop-color="#F7DD43"/>
<stop offset="1" stop-color="#F7DD43" stop-opacity="0"/>
</linearGradient>
<linearGradient id="paint73_linear_301_3035" x1="1319.77" y1="-42.1875" x2="1319.77" y2="378.025" gradientUnits="userSpaceOnUse">
<stop stop-color="#F7DD43"/>
<stop offset="1" stop-color="#F7DD43" stop-opacity="0"/>
</linearGradient>
<linearGradient id="paint74_linear_301_3035" x1="1319.77" y1="-42.1875" x2="1319.77" y2="378.025" gradientUnits="userSpaceOnUse">
<stop stop-color="#F7DD43"/>
<stop offset="1" stop-color="#F7DD43" stop-opacity="0"/>
</linearGradient>
<linearGradient id="paint75_linear_301_3035" x1="1319.77" y1="-42.1875" x2="1319.77" y2="378.025" gradientUnits="userSpaceOnUse">
<stop stop-color="#F7DD43"/>
<stop offset="1" stop-color="#F7DD43" stop-opacity="0"/>
</linearGradient>
<linearGradient id="paint76_linear_301_3035" x1="1319.77" y1="-42.1875" x2="1319.77" y2="378.025" gradientUnits="userSpaceOnUse">
<stop stop-color="#F7DD43"/>
<stop offset="1" stop-color="#F7DD43" stop-opacity="0"/>
</linearGradient>
<linearGradient id="paint77_linear_301_3035" x1="1319.77" y1="-42.1875" x2="1319.77" y2="378.025" gradientUnits="userSpaceOnUse">
<stop stop-color="#F7DD43"/>
<stop offset="1" stop-color="#F7DD43" stop-opacity="0"/>
</linearGradient>
<linearGradient id="paint78_linear_301_3035" x1="1319.77" y1="-42.1875" x2="1319.77" y2="378.025" gradientUnits="userSpaceOnUse">
<stop stop-color="#F7DD43"/>
<stop offset="1" stop-color="#F7DD43" stop-opacity="0"/>
</linearGradient>
<linearGradient id="paint79_linear_301_3035" x1="1319.77" y1="-42.1875" x2="1319.77" y2="378.025" gradientUnits="userSpaceOnUse">
<stop stop-color="#F7DD43"/>
<stop offset="1" stop-color="#F7DD43" stop-opacity="0"/>
</linearGradient>
<linearGradient id="paint80_linear_301_3035" x1="1319.77" y1="-42.1875" x2="1319.77" y2="378.025" gradientUnits="userSpaceOnUse">
<stop stop-color="#F7DD43"/>
<stop offset="1" stop-color="#F7DD43" stop-opacity="0"/>
</linearGradient>
<linearGradient id="paint81_linear_301_3035" x1="1319.77" y1="-42.1875" x2="1319.77" y2="378.025" gradientUnits="userSpaceOnUse">
<stop stop-color="#F7DD43"/>
<stop offset="1" stop-color="#F7DD43" stop-opacity="0"/>
</linearGradient>
<linearGradient id="paint82_linear_301_3035" x1="1319.77" y1="-42.1875" x2="1319.77" y2="378.025" gradientUnits="userSpaceOnUse">
<stop stop-color="#F7DD43"/>
<stop offset="1" stop-color="#F7DD43" stop-opacity="0"/>
</linearGradient>
<linearGradient id="paint83_linear_301_3035" x1="1319.77" y1="-42.1875" x2="1319.77" y2="378.025" gradientUnits="userSpaceOnUse">
<stop stop-color="#F7DD43"/>
<stop offset="1" stop-color="#F7DD43" stop-opacity="0"/>
</linearGradient>
<linearGradient id="paint84_linear_301_3035" x1="1319.77" y1="-42.1875" x2="1319.77" y2="378.025" gradientUnits="userSpaceOnUse">
<stop stop-color="#F7DD43"/>
<stop offset="1" stop-color="#F7DD43" stop-opacity="0"/>
</linearGradient>
<linearGradient id="paint85_linear_301_3035" x1="1319.77" y1="-42.1875" x2="1319.77" y2="378.025" gradientUnits="userSpaceOnUse">
<stop stop-color="#F7DD43"/>
<stop offset="1" stop-color="#F7DD43" stop-opacity="0"/>
</linearGradient>
<linearGradient id="paint86_linear_301_3035" x1="1319.77" y1="-42.1875" x2="1319.77" y2="378.025" gradientUnits="userSpaceOnUse">
<stop stop-color="#F7DD43"/>
<stop offset="1" stop-color="#F7DD43" stop-opacity="0"/>
</linearGradient>
<linearGradient id="paint87_linear_301_3035" x1="1319.77" y1="-42.1875" x2="1319.77" y2="378.025" gradientUnits="userSpaceOnUse">
<stop stop-color="#F7DD43"/>
<stop offset="1" stop-color="#F7DD43" stop-opacity="0"/>
</linearGradient>
<linearGradient id="paint88_linear_301_3035" x1="1319.77" y1="-42.1875" x2="1319.77" y2="378.025" gradientUnits="userSpaceOnUse">
<stop stop-color="#F7DD43"/>
<stop offset="1" stop-color="#F7DD43" stop-opacity="0"/>
</linearGradient>
<linearGradient id="paint89_linear_301_3035" x1="1319.77" y1="-42.1875" x2="1319.77" y2="378.025" gradientUnits="userSpaceOnUse">
<stop stop-color="#F7DD43"/>
<stop offset="1" stop-color="#F7DD43" stop-opacity="0"/>
</linearGradient>
<linearGradient id="paint90_linear_301_3035" x1="1319.77" y1="-42.1875" x2="1319.77" y2="378.025" gradientUnits="userSpaceOnUse">
<stop stop-color="#F7DD43"/>
<stop offset="1" stop-color="#F7DD43" stop-opacity="0"/>
</linearGradient>
<linearGradient id="paint91_linear_301_3035" x1="1319.77" y1="-42.1875" x2="1319.77" y2="378.025" gradientUnits="userSpaceOnUse">
<stop stop-color="#F7DD43"/>
<stop offset="1" stop-color="#F7DD43" stop-opacity="0"/>
</linearGradient>
<linearGradient id="paint92_linear_301_3035" x1="1319.77" y1="-42.1875" x2="1319.77" y2="378.025" gradientUnits="userSpaceOnUse">
<stop stop-color="#F7DD43"/>
<stop offset="1" stop-color="#F7DD43" stop-opacity="0"/>
</linearGradient>
<linearGradient id="paint93_linear_301_3035" x1="1319.77" y1="-42.1875" x2="1319.77" y2="378.025" gradientUnits="userSpaceOnUse">
<stop stop-color="#F7DD43"/>
<stop offset="1" stop-color="#F7DD43" stop-opacity="0"/>
</linearGradient>
<clipPath id="clip0_301_3035">
<rect width="1440" height="1058.91" rx="16" fill="white"/>
</clipPath>
</defs>
</svg>
